<mxfile host="Electron" agent="Mozilla/5.0 (Windows NT 10.0; Win64; x64) AppleWebKit/537.36 (KHTML, like Gecko) draw.io/25.0.2 Chrome/128.0.6613.186 Electron/32.2.5 Safari/537.36" version="25.0.2" pages="4">
  <diagram name="Schema" id="opc640k1HLoYFZwjB88s">
    <mxGraphModel dx="1235" dy="731" grid="1" gridSize="10" guides="1" tooltips="1" connect="1" arrows="1" fold="1" page="1" pageScale="1" pageWidth="1169" pageHeight="827" math="0" shadow="0">
      <root>
        <mxCell id="0" />
        <mxCell id="1" parent="0" />
        <mxCell id="rJ3xM8WHZ8CuLHnQlr6I-13" value="Backend" style="swimlane;whiteSpace=wrap;html=1;movable=1;resizable=1;rotatable=1;deletable=1;editable=1;locked=0;connectable=1;" parent="1" vertex="1">
          <mxGeometry x="30" y="20" width="670" height="690" as="geometry" />
        </mxCell>
        <mxCell id="rJ3xM8WHZ8CuLHnQlr6I-14" style="edgeStyle=orthogonalEdgeStyle;rounded=0;orthogonalLoop=1;jettySize=auto;html=1;exitX=0.5;exitY=1;exitDx=0;exitDy=0;entryX=0.5;entryY=0;entryDx=0;entryDy=0;" parent="rJ3xM8WHZ8CuLHnQlr6I-13" source="rJ3xM8WHZ8CuLHnQlr6I-16" target="rJ3xM8WHZ8CuLHnQlr6I-24" edge="1">
          <mxGeometry relative="1" as="geometry" />
        </mxCell>
        <mxCell id="rJ3xM8WHZ8CuLHnQlr6I-15" value="Filebeat" style="edgeLabel;html=1;align=center;verticalAlign=middle;resizable=0;points=[];" parent="rJ3xM8WHZ8CuLHnQlr6I-14" vertex="1" connectable="0">
          <mxGeometry x="-0.1429" y="2" relative="1" as="geometry">
            <mxPoint as="offset" />
          </mxGeometry>
        </mxCell>
        <mxCell id="rJ3xM8WHZ8CuLHnQlr6I-16" value="PostgreSQL" style="rounded=1;whiteSpace=wrap;html=1;fillColor=#1ba1e2;fontColor=#ffffff;strokeColor=#006EAF;" parent="rJ3xM8WHZ8CuLHnQlr6I-13" vertex="1">
          <mxGeometry x="60" y="130" width="120" height="60" as="geometry" />
        </mxCell>
        <mxCell id="rJ3xM8WHZ8CuLHnQlr6I-17" value="Database" style="text;html=1;align=center;verticalAlign=middle;whiteSpace=wrap;rounded=0;" parent="rJ3xM8WHZ8CuLHnQlr6I-13" vertex="1">
          <mxGeometry x="60" y="103" width="60" height="30" as="geometry" />
        </mxCell>
        <mxCell id="rJ3xM8WHZ8CuLHnQlr6I-18" style="edgeStyle=orthogonalEdgeStyle;rounded=0;orthogonalLoop=1;jettySize=auto;html=1;exitX=0;exitY=0.5;exitDx=0;exitDy=0;entryX=1;entryY=0.5;entryDx=0;entryDy=0;" parent="rJ3xM8WHZ8CuLHnQlr6I-13" source="rJ3xM8WHZ8CuLHnQlr6I-20" target="rJ3xM8WHZ8CuLHnQlr6I-24" edge="1">
          <mxGeometry relative="1" as="geometry" />
        </mxCell>
        <mxCell id="rJ3xM8WHZ8CuLHnQlr6I-19" value="Filebeat" style="edgeLabel;html=1;align=center;verticalAlign=middle;resizable=0;points=[];" parent="rJ3xM8WHZ8CuLHnQlr6I-18" vertex="1" connectable="0">
          <mxGeometry x="-0.6435" y="-3" relative="1" as="geometry">
            <mxPoint x="25" y="3" as="offset" />
          </mxGeometry>
        </mxCell>
        <mxCell id="rJ3xM8WHZ8CuLHnQlr6I-28" style="edgeStyle=orthogonalEdgeStyle;rounded=0;orthogonalLoop=1;jettySize=auto;html=1;exitX=1;exitY=0.5;exitDx=0;exitDy=0;entryX=0;entryY=0.5;entryDx=0;entryDy=0;" parent="rJ3xM8WHZ8CuLHnQlr6I-13" source="rJ3xM8WHZ8CuLHnQlr6I-20" target="rJ3xM8WHZ8CuLHnQlr6I-27" edge="1">
          <mxGeometry relative="1" as="geometry" />
        </mxCell>
        <mxCell id="rJ3xM8WHZ8CuLHnQlr6I-20" value="GPS Tracker&lt;br&gt;Server" style="rounded=0;whiteSpace=wrap;html=1;fillColor=#e3c800;fontColor=#000000;strokeColor=#B09500;" parent="rJ3xM8WHZ8CuLHnQlr6I-13" vertex="1">
          <mxGeometry x="290" y="130" width="120" height="60" as="geometry" />
        </mxCell>
        <mxCell id="rJ3xM8WHZ8CuLHnQlr6I-21" style="edgeStyle=orthogonalEdgeStyle;rounded=0;orthogonalLoop=1;jettySize=auto;html=1;exitX=0;exitY=0.5;exitDx=0;exitDy=0;entryX=1;entryY=0.5;entryDx=0;entryDy=0;" parent="rJ3xM8WHZ8CuLHnQlr6I-13" source="rJ3xM8WHZ8CuLHnQlr6I-23" edge="1">
          <mxGeometry relative="1" as="geometry">
            <mxPoint x="280" y="356.75" as="sourcePoint" />
            <mxPoint x="170" y="356.75" as="targetPoint" />
          </mxGeometry>
        </mxCell>
        <mxCell id="rJ3xM8WHZ8CuLHnQlr6I-22" value="Filebeat" style="edgeLabel;html=1;align=center;verticalAlign=middle;resizable=0;points=[];" parent="rJ3xM8WHZ8CuLHnQlr6I-21" vertex="1" connectable="0">
          <mxGeometry x="-0.6115" y="1" relative="1" as="geometry">
            <mxPoint x="-6" y="-1" as="offset" />
          </mxGeometry>
        </mxCell>
        <mxCell id="rJ3xM8WHZ8CuLHnQlr6I-29" style="edgeStyle=orthogonalEdgeStyle;rounded=0;orthogonalLoop=1;jettySize=auto;html=1;exitX=1;exitY=0.5;exitDx=0;exitDy=0;entryX=0;entryY=0.5;entryDx=0;entryDy=0;" parent="rJ3xM8WHZ8CuLHnQlr6I-13" source="rJ3xM8WHZ8CuLHnQlr6I-23" target="rJ3xM8WHZ8CuLHnQlr6I-27" edge="1">
          <mxGeometry relative="1" as="geometry" />
        </mxCell>
        <mxCell id="rJ3xM8WHZ8CuLHnQlr6I-23" value="Matchmaking &lt;br&gt;Server" style="rounded=0;whiteSpace=wrap;html=1;align=center;fillColor=#fa6800;fontColor=#000000;strokeColor=#C73500;" parent="rJ3xM8WHZ8CuLHnQlr6I-13" vertex="1">
          <mxGeometry x="290" y="327" width="120" height="60" as="geometry" />
        </mxCell>
        <mxCell id="rJ3xM8WHZ8CuLHnQlr6I-24" value="Log Tracker&lt;div&gt;(ELK Stack)&lt;/div&gt;" style="rounded=0;whiteSpace=wrap;html=1;fillColor=#6d8764;strokeColor=#3A5431;fontColor=#ffffff;" parent="rJ3xM8WHZ8CuLHnQlr6I-13" vertex="1">
          <mxGeometry x="60" y="327" width="120" height="60" as="geometry" />
        </mxCell>
        <mxCell id="rJ3xM8WHZ8CuLHnQlr6I-27" value="Nginx" style="ellipse;whiteSpace=wrap;html=1;aspect=fixed;fillColor=#57167D;fontColor=#ffffff;strokeColor=#291C36;" parent="rJ3xM8WHZ8CuLHnQlr6I-13" vertex="1">
          <mxGeometry x="540" y="215" width="80" height="80" as="geometry" />
        </mxCell>
        <mxCell id="rJ3xM8WHZ8CuLHnQlr6I-31" style="edgeStyle=orthogonalEdgeStyle;rounded=0;orthogonalLoop=1;jettySize=auto;html=1;exitX=0;exitY=0.5;exitDx=0;exitDy=0;entryX=1;entryY=0.5;entryDx=0;entryDy=0;" parent="rJ3xM8WHZ8CuLHnQlr6I-13" source="rJ3xM8WHZ8CuLHnQlr6I-30" target="rJ3xM8WHZ8CuLHnQlr6I-24" edge="1">
          <mxGeometry relative="1" as="geometry" />
        </mxCell>
        <mxCell id="rJ3xM8WHZ8CuLHnQlr6I-33" value="Filebeat" style="edgeLabel;html=1;align=center;verticalAlign=middle;resizable=0;points=[];" parent="rJ3xM8WHZ8CuLHnQlr6I-31" vertex="1" connectable="0">
          <mxGeometry x="-0.7176" y="2" relative="1" as="geometry">
            <mxPoint as="offset" />
          </mxGeometry>
        </mxCell>
        <mxCell id="rJ3xM8WHZ8CuLHnQlr6I-34" style="edgeStyle=orthogonalEdgeStyle;rounded=0;orthogonalLoop=1;jettySize=auto;html=1;exitX=1;exitY=0.5;exitDx=0;exitDy=0;entryX=0;entryY=0.5;entryDx=0;entryDy=0;" parent="rJ3xM8WHZ8CuLHnQlr6I-13" source="rJ3xM8WHZ8CuLHnQlr6I-30" target="rJ3xM8WHZ8CuLHnQlr6I-27" edge="1">
          <mxGeometry relative="1" as="geometry" />
        </mxCell>
        <mxCell id="rJ3xM8WHZ8CuLHnQlr6I-30" value="Responder&lt;br&gt;Server" style="rounded=0;whiteSpace=wrap;html=1;align=center;fillColor=#647687;fontColor=#ffffff;strokeColor=#314354;" parent="rJ3xM8WHZ8CuLHnQlr6I-13" vertex="1">
          <mxGeometry x="290" y="225" width="120" height="60" as="geometry" />
        </mxCell>
        <mxCell id="buZ2Y0Om4jaeqKhQpkS_-2" style="edgeStyle=orthogonalEdgeStyle;rounded=0;orthogonalLoop=1;jettySize=auto;html=1;exitX=0;exitY=0.5;exitDx=0;exitDy=0;entryX=1;entryY=0.5;entryDx=0;entryDy=0;" edge="1" parent="rJ3xM8WHZ8CuLHnQlr6I-13" source="buZ2Y0Om4jaeqKhQpkS_-1" target="rJ3xM8WHZ8CuLHnQlr6I-24">
          <mxGeometry relative="1" as="geometry" />
        </mxCell>
        <mxCell id="buZ2Y0Om4jaeqKhQpkS_-3" style="edgeStyle=orthogonalEdgeStyle;rounded=0;orthogonalLoop=1;jettySize=auto;html=1;exitX=1;exitY=0.5;exitDx=0;exitDy=0;entryX=0;entryY=0.5;entryDx=0;entryDy=0;" edge="1" parent="rJ3xM8WHZ8CuLHnQlr6I-13" source="buZ2Y0Om4jaeqKhQpkS_-1" target="rJ3xM8WHZ8CuLHnQlr6I-27">
          <mxGeometry relative="1" as="geometry" />
        </mxCell>
        <mxCell id="buZ2Y0Om4jaeqKhQpkS_-1" value="Interface&lt;br&gt;Server" style="rounded=0;whiteSpace=wrap;html=1;align=center;fillColor=#647687;fontColor=#ffffff;strokeColor=#314354;" vertex="1" parent="rJ3xM8WHZ8CuLHnQlr6I-13">
          <mxGeometry x="290" y="430" width="120" height="60" as="geometry" />
        </mxCell>
        <mxCell id="rJ3xM8WHZ8CuLHnQlr6I-25" value="Frontend" style="swimlane;whiteSpace=wrap;html=1;" parent="1" vertex="1">
          <mxGeometry x="770" y="20" width="370" height="490" as="geometry" />
        </mxCell>
        <mxCell id="rJ3xM8WHZ8CuLHnQlr6I-37" value="Function:&lt;br&gt;sendlocation(lat,lon&lt;span style=&quot;background-color: initial;&quot;&gt;)&lt;/span&gt;" style="shape=process;whiteSpace=wrap;html=1;backgroundOutline=1;fillColor=#647687;fontColor=#ffffff;strokeColor=#314354;fontStyle=1" parent="rJ3xM8WHZ8CuLHnQlr6I-25" vertex="1">
          <mxGeometry x="60" y="88" width="250" height="60" as="geometry" />
        </mxCell>
        <mxCell id="rJ3xM8WHZ8CuLHnQlr6I-39" style="edgeStyle=orthogonalEdgeStyle;rounded=0;orthogonalLoop=1;jettySize=auto;html=1;exitX=0.5;exitY=0;exitDx=0;exitDy=0;entryX=0.5;entryY=1;entryDx=0;entryDy=0;" parent="rJ3xM8WHZ8CuLHnQlr6I-25" source="rJ3xM8WHZ8CuLHnQlr6I-38" target="rJ3xM8WHZ8CuLHnQlr6I-37" edge="1">
          <mxGeometry relative="1" as="geometry" />
        </mxCell>
        <mxCell id="rJ3xM8WHZ8CuLHnQlr6I-38" value="Android Client App" style="shape=hexagon;perimeter=hexagonPerimeter2;whiteSpace=wrap;html=1;fixedSize=1;fillColor=#a0522d;fontColor=#ffffff;strokeColor=#6D1F00;" parent="rJ3xM8WHZ8CuLHnQlr6I-25" vertex="1">
          <mxGeometry x="117.5" y="215" width="135" height="80" as="geometry" />
        </mxCell>
        <mxCell id="rJ3xM8WHZ8CuLHnQlr6I-40" style="edgeStyle=orthogonalEdgeStyle;rounded=0;orthogonalLoop=1;jettySize=auto;html=1;exitX=0;exitY=0.5;exitDx=0;exitDy=0;entryX=1;entryY=0.5;entryDx=0;entryDy=0;" parent="1" source="rJ3xM8WHZ8CuLHnQlr6I-37" target="rJ3xM8WHZ8CuLHnQlr6I-27" edge="1">
          <mxGeometry relative="1" as="geometry">
            <Array as="points">
              <mxPoint x="810" y="138" />
              <mxPoint x="810" y="275" />
            </Array>
          </mxGeometry>
        </mxCell>
        <mxCell id="rJ3xM8WHZ8CuLHnQlr6I-41" style="edgeStyle=orthogonalEdgeStyle;rounded=0;orthogonalLoop=1;jettySize=auto;html=1;exitX=1;exitY=0.5;exitDx=0;exitDy=0;entryX=0;entryY=0.5;entryDx=0;entryDy=0;" parent="1" source="rJ3xM8WHZ8CuLHnQlr6I-27" target="rJ3xM8WHZ8CuLHnQlr6I-38" edge="1">
          <mxGeometry relative="1" as="geometry" />
        </mxCell>
      </root>
    </mxGraphModel>
  </diagram>
  <diagram id="cdbMFTuAU1nH9OoIrLVE" name="Responder">
    <mxGraphModel dx="1235" dy="731" grid="1" gridSize="10" guides="1" tooltips="1" connect="1" arrows="1" fold="1" page="1" pageScale="1" pageWidth="1169" pageHeight="827" math="0" shadow="0">
      <root>
        <mxCell id="0" />
        <mxCell id="1" parent="0" />
        <mxCell id="6eDrEkHaWnueHMm9mLSs-2" style="edgeStyle=orthogonalEdgeStyle;rounded=0;orthogonalLoop=1;jettySize=auto;html=1;exitX=0.5;exitY=0;exitDx=0;exitDy=0;" edge="1" parent="1" source="Vh3TI4ZqZUC5c_BswAIB-1" target="6eDrEkHaWnueHMm9mLSs-1">
          <mxGeometry relative="1" as="geometry" />
        </mxCell>
        <mxCell id="UNsqskYPfvakn4IOImKp-1" style="edgeStyle=orthogonalEdgeStyle;rounded=0;orthogonalLoop=1;jettySize=auto;html=1;exitX=1;exitY=0.5;exitDx=0;exitDy=0;fontFamily=Helvetica;fontSize=18;fontColor=#ffffff;" edge="1" parent="1" source="Vh3TI4ZqZUC5c_BswAIB-1" target="UNsqskYPfvakn4IOImKp-2">
          <mxGeometry relative="1" as="geometry">
            <mxPoint x="680" y="625.4705882352941" as="targetPoint" />
          </mxGeometry>
        </mxCell>
        <mxCell id="Vh3TI4ZqZUC5c_BswAIB-1" value="/" style="text;html=1;align=center;verticalAlign=middle;whiteSpace=wrap;rounded=0;fontSize=18;fillColor=#0050ef;fontColor=#ffffff;strokeColor=#001DBC;" parent="1" vertex="1">
          <mxGeometry x="342.5" y="600" width="70" height="50" as="geometry" />
        </mxCell>
        <mxCell id="Vh3TI4ZqZUC5c_BswAIB-17" value="/Location&lt;br&gt;&lt;span style=&quot;text-wrap: nowrap;&quot;&gt;`&lt;/span&gt;get last location&lt;span style=&quot;text-wrap: nowrap;&quot;&gt;`&lt;/span&gt;" style="text;html=1;align=center;verticalAlign=middle;whiteSpace=wrap;rounded=0;fontSize=18;fontFamily=Helvetica;" parent="1" vertex="1">
          <mxGeometry x="100" y="226" width="165" height="50" as="geometry" />
        </mxCell>
        <mxCell id="Vh3TI4ZqZUC5c_BswAIB-27" style="edgeStyle=orthogonalEdgeStyle;rounded=0;orthogonalLoop=1;jettySize=auto;html=1;exitX=1;exitY=0.5;exitDx=0;exitDy=0;entryX=0;entryY=0.5;entryDx=0;entryDy=0;fontFamily=Helvetica;fontSize=18;fontColor=default;" parent="1" source="Vh3TI4ZqZUC5c_BswAIB-19" target="Vh3TI4ZqZUC5c_BswAIB-26" edge="1">
          <mxGeometry relative="1" as="geometry" />
        </mxCell>
        <mxCell id="Vh3TI4ZqZUC5c_BswAIB-28" style="edgeStyle=orthogonalEdgeStyle;rounded=0;orthogonalLoop=1;jettySize=auto;html=1;exitX=1;exitY=0.5;exitDx=0;exitDy=0;fontFamily=Helvetica;fontSize=18;fontColor=default;" parent="1" source="Vh3TI4ZqZUC5c_BswAIB-19" target="Vh3TI4ZqZUC5c_BswAIB-23" edge="1">
          <mxGeometry relative="1" as="geometry" />
        </mxCell>
        <mxCell id="Vh3TI4ZqZUC5c_BswAIB-19" value="/Info&lt;br&gt;&lt;span style=&quot;text-wrap: nowrap;&quot;&gt;`send client info&lt;/span&gt;&lt;span style=&quot;text-wrap: nowrap;&quot;&gt;`&lt;/span&gt;" style="text;html=1;align=center;verticalAlign=middle;whiteSpace=wrap;rounded=0;fontSize=18;fontFamily=Helvetica;fontColor=default;" parent="1" vertex="1">
          <mxGeometry x="498.75" y="226" width="147.5" height="50" as="geometry" />
        </mxCell>
        <mxCell id="Vh3TI4ZqZUC5c_BswAIB-21" value="/&lt;br&gt;&lt;span style=&quot;text-wrap: nowrap;&quot;&gt;`who is&lt;/span&gt;&lt;span style=&quot;text-wrap: nowrap;&quot;&gt;`&lt;/span&gt;" style="text;html=1;align=center;verticalAlign=middle;whiteSpace=wrap;rounded=0;fontSize=18;fontFamily=Helvetica;fontColor=default;" parent="1" vertex="1">
          <mxGeometry x="342.5" y="226" width="70" height="50" as="geometry" />
        </mxCell>
        <mxCell id="Vh3TI4ZqZUC5c_BswAIB-23" value="[Post]&lt;br&gt;`modify` (if /User)" style="text;html=1;align=center;verticalAlign=middle;whiteSpace=wrap;rounded=0;fontSize=18;fontFamily=Helvetica;fontColor=default;" parent="1" vertex="1">
          <mxGeometry x="752.5" y="196" width="200" height="50" as="geometry" />
        </mxCell>
        <mxCell id="Vh3TI4ZqZUC5c_BswAIB-26" value="[Get]&lt;br&gt;`get client info&lt;span style=&quot;background-color: initial;&quot;&gt;`&lt;/span&gt;" style="text;html=1;align=center;verticalAlign=middle;whiteSpace=wrap;rounded=0;fontSize=18;fontFamily=Helvetica;fontColor=default;" parent="1" vertex="1">
          <mxGeometry x="752.5" y="256" width="200" height="50" as="geometry" />
        </mxCell>
        <mxCell id="Vh3TI4ZqZUC5c_BswAIB-67" style="edgeStyle=orthogonalEdgeStyle;shape=connector;rounded=0;orthogonalLoop=1;jettySize=auto;html=1;exitX=0.5;exitY=0;exitDx=0;exitDy=0;strokeColor=default;align=center;verticalAlign=middle;fontFamily=Helvetica;fontSize=18;fontColor=default;labelBackgroundColor=default;endArrow=classic;" parent="1" source="Vh3TI4ZqZUC5c_BswAIB-41" target="Vh3TI4ZqZUC5c_BswAIB-21" edge="1">
          <mxGeometry relative="1" as="geometry" />
        </mxCell>
        <mxCell id="Vh3TI4ZqZUC5c_BswAIB-41" value="/me" style="text;html=1;align=center;verticalAlign=middle;whiteSpace=wrap;rounded=0;fontSize=18;fontFamily=Helvetica;fontColor=default;" parent="1" vertex="1">
          <mxGeometry x="412.5" y="406" width="70" height="50" as="geometry" />
        </mxCell>
        <mxCell id="Vh3TI4ZqZUC5c_BswAIB-49" style="edgeStyle=orthogonalEdgeStyle;rounded=0;orthogonalLoop=1;jettySize=auto;html=1;exitX=1;exitY=0.5;exitDx=0;exitDy=0;entryX=0;entryY=0.5;entryDx=0;entryDy=0;fontFamily=Helvetica;fontSize=18;fontColor=default;endArrow=none;endFill=0;" parent="1" source="Vh3TI4ZqZUC5c_BswAIB-42" target="Vh3TI4ZqZUC5c_BswAIB-41" edge="1">
          <mxGeometry relative="1" as="geometry" />
        </mxCell>
        <mxCell id="Vh3TI4ZqZUC5c_BswAIB-64" style="edgeStyle=orthogonalEdgeStyle;shape=connector;rounded=0;orthogonalLoop=1;jettySize=auto;html=1;exitX=0.5;exitY=0;exitDx=0;exitDy=0;entryX=0.5;entryY=1;entryDx=0;entryDy=0;strokeColor=default;align=center;verticalAlign=middle;fontFamily=Helvetica;fontSize=18;fontColor=default;labelBackgroundColor=default;endArrow=classic;" parent="1" source="Vh3TI4ZqZUC5c_BswAIB-42" target="Vh3TI4ZqZUC5c_BswAIB-17" edge="1">
          <mxGeometry relative="1" as="geometry" />
        </mxCell>
        <mxCell id="Vh3TI4ZqZUC5c_BswAIB-65" style="edgeStyle=orthogonalEdgeStyle;shape=connector;rounded=0;orthogonalLoop=1;jettySize=auto;html=1;exitX=0.5;exitY=0;exitDx=0;exitDy=0;strokeColor=default;align=center;verticalAlign=middle;fontFamily=Helvetica;fontSize=18;fontColor=default;labelBackgroundColor=default;endArrow=classic;" parent="1" source="Vh3TI4ZqZUC5c_BswAIB-42" target="Vh3TI4ZqZUC5c_BswAIB-21" edge="1">
          <mxGeometry relative="1" as="geometry" />
        </mxCell>
        <mxCell id="Vh3TI4ZqZUC5c_BswAIB-66" style="edgeStyle=orthogonalEdgeStyle;shape=connector;rounded=0;orthogonalLoop=1;jettySize=auto;html=1;exitX=0.5;exitY=0;exitDx=0;exitDy=0;strokeColor=default;align=center;verticalAlign=middle;fontFamily=Helvetica;fontSize=18;fontColor=default;labelBackgroundColor=default;endArrow=classic;" parent="1" source="Vh3TI4ZqZUC5c_BswAIB-42" target="Vh3TI4ZqZUC5c_BswAIB-19" edge="1">
          <mxGeometry relative="1" as="geometry" />
        </mxCell>
        <mxCell id="Vh3TI4ZqZUC5c_BswAIB-42" value="/:id" style="text;html=1;align=center;verticalAlign=middle;whiteSpace=wrap;rounded=0;fontSize=18;fontFamily=Helvetica;fontColor=default;" parent="1" vertex="1">
          <mxGeometry x="252.5" y="406" width="77.5" height="50" as="geometry" />
        </mxCell>
        <mxCell id="6eDrEkHaWnueHMm9mLSs-3" style="edgeStyle=orthogonalEdgeStyle;rounded=0;orthogonalLoop=1;jettySize=auto;html=1;exitX=0.5;exitY=0;exitDx=0;exitDy=0;" edge="1" parent="1" source="6eDrEkHaWnueHMm9mLSs-1" target="Vh3TI4ZqZUC5c_BswAIB-42">
          <mxGeometry relative="1" as="geometry" />
        </mxCell>
        <mxCell id="6eDrEkHaWnueHMm9mLSs-4" style="edgeStyle=orthogonalEdgeStyle;rounded=0;orthogonalLoop=1;jettySize=auto;html=1;exitX=0.5;exitY=0;exitDx=0;exitDy=0;" edge="1" parent="1" source="6eDrEkHaWnueHMm9mLSs-1" target="Vh3TI4ZqZUC5c_BswAIB-41">
          <mxGeometry relative="1" as="geometry" />
        </mxCell>
        <mxCell id="6eDrEkHaWnueHMm9mLSs-1" value="/User" style="text;html=1;align=center;verticalAlign=middle;whiteSpace=wrap;rounded=0;fontSize=18;fontFamily=Helvetica;fontColor=default;" vertex="1" parent="1">
          <mxGeometry x="332.5" y="500" width="90" height="50" as="geometry" />
        </mxCell>
        <mxCell id="UNsqskYPfvakn4IOImKp-4" value="" style="edgeStyle=orthogonalEdgeStyle;rounded=0;orthogonalLoop=1;jettySize=auto;html=1;fontFamily=Helvetica;fontSize=18;fontColor=#ffffff;" edge="1" parent="1" source="UNsqskYPfvakn4IOImKp-2" target="UNsqskYPfvakn4IOImKp-3">
          <mxGeometry relative="1" as="geometry" />
        </mxCell>
        <mxCell id="UNsqskYPfvakn4IOImKp-2" value="/friends" style="text;html=1;align=center;verticalAlign=middle;resizable=0;points=[];autosize=1;strokeColor=none;fillColor=none;fontFamily=Helvetica;fontSize=18;fontColor=#ffffff;" vertex="1" parent="1">
          <mxGeometry x="560" y="605" width="80" height="40" as="geometry" />
        </mxCell>
        <mxCell id="UNsqskYPfvakn4IOImKp-3" value="/locations" style="text;html=1;align=center;verticalAlign=middle;resizable=0;points=[];autosize=1;strokeColor=none;fillColor=none;fontFamily=Helvetica;fontSize=18;fontColor=#ffffff;" vertex="1" parent="1">
          <mxGeometry x="710" y="605" width="100" height="40" as="geometry" />
        </mxCell>
      </root>
    </mxGraphModel>
  </diagram>
  <diagram name="GPS Tracker" id="GiUYRV1GWeP-b3hLKF_i">
    <mxGraphModel dx="1105" dy="654" grid="1" gridSize="10" guides="1" tooltips="1" connect="1" arrows="1" fold="1" page="1" pageScale="1" pageWidth="1169" pageHeight="827" math="0" shadow="0">
      <root>
        <mxCell id="ubSvM6Ma5Gg7oKM4FNZG-0" />
        <mxCell id="ubSvM6Ma5Gg7oKM4FNZG-1" parent="ubSvM6Ma5Gg7oKM4FNZG-0" />
        <mxCell id="ubSvM6Ma5Gg7oKM4FNZG-3" style="edgeStyle=orthogonalEdgeStyle;rounded=0;orthogonalLoop=1;jettySize=auto;html=1;exitX=0.5;exitY=0;exitDx=0;exitDy=0;entryX=0.5;entryY=1;entryDx=0;entryDy=0;fontFamily=Helvetica;fontSize=18;fontColor=default;" parent="ubSvM6Ma5Gg7oKM4FNZG-1" source="ubSvM6Ma5Gg7oKM4FNZG-4" target="ubSvM6Ma5Gg7oKM4FNZG-19" edge="1">
          <mxGeometry relative="1" as="geometry">
            <Array as="points">
              <mxPoint x="369" y="350" />
              <mxPoint x="439" y="350" />
            </Array>
          </mxGeometry>
        </mxCell>
        <mxCell id="PBwL0Q7PvouxAEM6X6Tn-5" style="edgeStyle=orthogonalEdgeStyle;rounded=0;orthogonalLoop=1;jettySize=auto;html=1;exitX=0;exitY=0.5;exitDx=0;exitDy=0;entryX=0.5;entryY=0;entryDx=0;entryDy=0;" parent="ubSvM6Ma5Gg7oKM4FNZG-1" source="ubSvM6Ma5Gg7oKM4FNZG-4" target="jGCPDsBbcdj4XH3yvUyG-6" edge="1">
          <mxGeometry relative="1" as="geometry" />
        </mxCell>
        <mxCell id="Tz5BmcnhMBQ0euQqF3hh-3" style="edgeStyle=orthogonalEdgeStyle;rounded=0;orthogonalLoop=1;jettySize=auto;html=1;exitX=0.25;exitY=1;exitDx=0;exitDy=0;fontFamily=Helvetica;fontSize=18;fontColor=#ffffff;" edge="1" parent="ubSvM6Ma5Gg7oKM4FNZG-1" source="ubSvM6Ma5Gg7oKM4FNZG-4" target="Tz5BmcnhMBQ0euQqF3hh-5">
          <mxGeometry relative="1" as="geometry">
            <mxPoint x="352" y="700" as="targetPoint" />
          </mxGeometry>
        </mxCell>
        <mxCell id="Tz5BmcnhMBQ0euQqF3hh-4" style="edgeStyle=orthogonalEdgeStyle;rounded=0;orthogonalLoop=1;jettySize=auto;html=1;exitX=0.75;exitY=1;exitDx=0;exitDy=0;fontFamily=Helvetica;fontSize=18;fontColor=#ffffff;entryX=0.503;entryY=0.046;entryDx=0;entryDy=0;entryPerimeter=0;" edge="1" parent="ubSvM6Ma5Gg7oKM4FNZG-1" source="ubSvM6Ma5Gg7oKM4FNZG-4" target="Tz5BmcnhMBQ0euQqF3hh-6">
          <mxGeometry relative="1" as="geometry">
            <mxPoint x="440" y="650" as="targetPoint" />
          </mxGeometry>
        </mxCell>
        <mxCell id="ubSvM6Ma5Gg7oKM4FNZG-4" value="/" style="text;html=1;align=center;verticalAlign=middle;whiteSpace=wrap;rounded=0;fontSize=18;fillColor=#0050ef;fontColor=#ffffff;strokeColor=#001DBC;" parent="ubSvM6Ma5Gg7oKM4FNZG-1" vertex="1">
          <mxGeometry x="334" y="460" width="70" height="50" as="geometry" />
        </mxCell>
        <mxCell id="ubSvM6Ma5Gg7oKM4FNZG-6" style="edgeStyle=orthogonalEdgeStyle;rounded=0;orthogonalLoop=1;jettySize=auto;html=1;fontFamily=Helvetica;fontSize=18;fontColor=default;" parent="ubSvM6Ma5Gg7oKM4FNZG-1" source="ubSvM6Ma5Gg7oKM4FNZG-7" target="ubSvM6Ma5Gg7oKM4FNZG-8" edge="1">
          <mxGeometry relative="1" as="geometry" />
        </mxCell>
        <mxCell id="ubSvM6Ma5Gg7oKM4FNZG-7" value="/Location" style="text;html=1;align=center;verticalAlign=middle;resizable=0;points=[];autosize=1;fontFamily=Helvetica;fontSize=18;" parent="ubSvM6Ma5Gg7oKM4FNZG-1" vertex="1">
          <mxGeometry x="735.25" y="372" width="100" height="40" as="geometry" />
        </mxCell>
        <mxCell id="ubSvM6Ma5Gg7oKM4FNZG-8" value="/Feed&lt;br&gt;`post current location`" style="text;html=1;align=center;verticalAlign=middle;resizable=0;points=[];autosize=1;strokeColor=none;fillColor=none;fontFamily=Helvetica;fontSize=18;fontColor=default;" parent="ubSvM6Ma5Gg7oKM4FNZG-1" vertex="1">
          <mxGeometry x="490.25" y="466" width="200" height="60" as="geometry" />
        </mxCell>
        <mxCell id="ubSvM6Ma5Gg7oKM4FNZG-18" style="edgeStyle=orthogonalEdgeStyle;shape=connector;rounded=0;orthogonalLoop=1;jettySize=auto;html=1;exitX=1;exitY=0.5;exitDx=0;exitDy=0;strokeColor=default;align=center;verticalAlign=middle;fontFamily=Helvetica;fontSize=18;fontColor=default;labelBackgroundColor=default;endArrow=classic;" parent="ubSvM6Ma5Gg7oKM4FNZG-1" source="ubSvM6Ma5Gg7oKM4FNZG-19" target="ubSvM6Ma5Gg7oKM4FNZG-7" edge="1">
          <mxGeometry relative="1" as="geometry" />
        </mxCell>
        <mxCell id="6eC-OkCbZEAnRRRZwISa-7" style="edgeStyle=orthogonalEdgeStyle;rounded=0;orthogonalLoop=1;jettySize=auto;html=1;exitX=0.5;exitY=0;exitDx=0;exitDy=0;entryX=0.5;entryY=1;entryDx=0;entryDy=0;" parent="ubSvM6Ma5Gg7oKM4FNZG-1" source="ubSvM6Ma5Gg7oKM4FNZG-19" target="6eC-OkCbZEAnRRRZwISa-1" edge="1">
          <mxGeometry relative="1" as="geometry" />
        </mxCell>
        <mxCell id="ubSvM6Ma5Gg7oKM4FNZG-19" value="/User" style="text;html=1;align=center;verticalAlign=middle;whiteSpace=wrap;rounded=0;fontSize=18;fontFamily=Helvetica;fontColor=default;" parent="ubSvM6Ma5Gg7oKM4FNZG-1" vertex="1">
          <mxGeometry x="404" y="280" width="70" height="50" as="geometry" />
        </mxCell>
        <mxCell id="ubSvM6Ma5Gg7oKM4FNZG-21" style="edgeStyle=orthogonalEdgeStyle;shape=connector;rounded=0;orthogonalLoop=1;jettySize=auto;html=1;exitX=0.5;exitY=0;exitDx=0;exitDy=0;entryX=0.5;entryY=1;entryDx=0;entryDy=0;strokeColor=default;align=center;verticalAlign=middle;fontFamily=Helvetica;fontSize=18;fontColor=default;labelBackgroundColor=default;endArrow=classic;" parent="ubSvM6Ma5Gg7oKM4FNZG-1" edge="1">
          <mxGeometry relative="1" as="geometry">
            <mxPoint x="182.5" y="276" as="targetPoint" />
          </mxGeometry>
        </mxCell>
        <mxCell id="ubSvM6Ma5Gg7oKM4FNZG-22" style="edgeStyle=orthogonalEdgeStyle;shape=connector;rounded=0;orthogonalLoop=1;jettySize=auto;html=1;exitX=0.5;exitY=0;exitDx=0;exitDy=0;strokeColor=default;align=center;verticalAlign=middle;fontFamily=Helvetica;fontSize=18;fontColor=default;labelBackgroundColor=default;endArrow=classic;" parent="ubSvM6Ma5Gg7oKM4FNZG-1" edge="1">
          <mxGeometry relative="1" as="geometry">
            <mxPoint x="377.5" y="276" as="targetPoint" />
          </mxGeometry>
        </mxCell>
        <mxCell id="ubSvM6Ma5Gg7oKM4FNZG-23" style="edgeStyle=orthogonalEdgeStyle;shape=connector;rounded=0;orthogonalLoop=1;jettySize=auto;html=1;exitX=0.5;exitY=0;exitDx=0;exitDy=0;strokeColor=default;align=center;verticalAlign=middle;fontFamily=Helvetica;fontSize=18;fontColor=default;labelBackgroundColor=default;endArrow=classic;" parent="ubSvM6Ma5Gg7oKM4FNZG-1" edge="1">
          <mxGeometry relative="1" as="geometry">
            <mxPoint x="572.5999999999999" y="276" as="targetPoint" />
          </mxGeometry>
        </mxCell>
        <mxCell id="jGCPDsBbcdj4XH3yvUyG-6" value="/Auth" style="text;html=1;align=center;verticalAlign=middle;whiteSpace=wrap;rounded=0;fontSize=18;fontFamily=Helvetica;fontColor=default;" parent="ubSvM6Ma5Gg7oKM4FNZG-1" vertex="1">
          <mxGeometry x="150" y="560" width="70" height="50" as="geometry" />
        </mxCell>
        <mxCell id="6eC-OkCbZEAnRRRZwISa-0" style="edgeStyle=orthogonalEdgeStyle;rounded=0;orthogonalLoop=1;jettySize=auto;html=1;exitX=1;exitY=0.5;exitDx=0;exitDy=0;fontFamily=Helvetica;fontSize=18;fontColor=default;" parent="ubSvM6Ma5Gg7oKM4FNZG-1" source="6eC-OkCbZEAnRRRZwISa-1" target="6eC-OkCbZEAnRRRZwISa-2" edge="1">
          <mxGeometry relative="1" as="geometry" />
        </mxCell>
        <mxCell id="6eC-OkCbZEAnRRRZwISa-1" value="/Info&lt;br&gt;&lt;span style=&quot;text-wrap: nowrap;&quot;&gt;`send client info&lt;/span&gt;&lt;span style=&quot;text-wrap: nowrap;&quot;&gt;`&lt;/span&gt;" style="text;html=1;align=center;verticalAlign=middle;whiteSpace=wrap;rounded=0;fontSize=18;fontFamily=Helvetica;fontColor=default;" parent="ubSvM6Ma5Gg7oKM4FNZG-1" vertex="1">
          <mxGeometry x="250" y="160" width="147.5" height="50" as="geometry" />
        </mxCell>
        <mxCell id="6eC-OkCbZEAnRRRZwISa-2" value="[Post]&lt;br&gt;`modify` (if /User)" style="text;html=1;align=center;verticalAlign=middle;whiteSpace=wrap;rounded=0;fontSize=18;fontFamily=Helvetica;fontColor=default;" parent="ubSvM6Ma5Gg7oKM4FNZG-1" vertex="1">
          <mxGeometry x="503.75" y="130" width="200" height="50" as="geometry" />
        </mxCell>
        <mxCell id="Tz5BmcnhMBQ0euQqF3hh-5" value="/Subscribe" style="text;html=1;align=center;verticalAlign=middle;resizable=0;points=[];autosize=1;strokeColor=none;fillColor=none;fontFamily=Helvetica;fontSize=18;fontColor=#ffffff;" vertex="1" parent="ubSvM6Ma5Gg7oKM4FNZG-1">
          <mxGeometry x="260" y="663" width="110" height="40" as="geometry" />
        </mxCell>
        <mxCell id="Tz5BmcnhMBQ0euQqF3hh-6" value="/Unsubscribe" style="text;html=1;align=center;verticalAlign=middle;resizable=0;points=[];autosize=1;strokeColor=none;fillColor=none;fontFamily=Helvetica;fontSize=18;fontColor=#ffffff;" vertex="1" parent="ubSvM6Ma5Gg7oKM4FNZG-1">
          <mxGeometry x="400" y="663" width="130" height="40" as="geometry" />
        </mxCell>
      </root>
    </mxGraphModel>
  </diagram>
  <diagram id="2aE43FUWmj9qqVxqdlGs" name="Interface Server">
    <mxGraphModel dx="1235" dy="731" grid="1" gridSize="10" guides="1" tooltips="1" connect="1" arrows="1" fold="1" page="1" pageScale="1" pageWidth="1169" pageHeight="827" math="0" shadow="0">
      <root>
        <mxCell id="0" />
        <mxCell id="1" parent="0" />
        <mxCell id="B2678jRW0r7QGjkDjPUS-7" style="edgeStyle=orthogonalEdgeStyle;rounded=0;orthogonalLoop=1;jettySize=auto;html=1;exitX=0.25;exitY=0;exitDx=0;exitDy=0;fontFamily=Helvetica;fontSize=18;fontColor=#ffffff;" parent="1" source="B2678jRW0r7QGjkDjPUS-1" target="B2678jRW0r7QGjkDjPUS-2" edge="1">
          <mxGeometry relative="1" as="geometry" />
        </mxCell>
        <mxCell id="B2678jRW0r7QGjkDjPUS-8" style="edgeStyle=orthogonalEdgeStyle;rounded=0;orthogonalLoop=1;jettySize=auto;html=1;exitX=0.75;exitY=0;exitDx=0;exitDy=0;fontFamily=Helvetica;fontSize=18;fontColor=#ffffff;" parent="1" source="B2678jRW0r7QGjkDjPUS-1" target="B2678jRW0r7QGjkDjPUS-4" edge="1">
          <mxGeometry relative="1" as="geometry" />
        </mxCell>
        <mxCell id="ES7g-LYabEd6Pk6_oV13-3" value="" style="edgeStyle=orthogonalEdgeStyle;rounded=0;orthogonalLoop=1;jettySize=auto;html=1;fontFamily=Helvetica;fontSize=18;fontColor=#ffffff;" parent="1" source="B2678jRW0r7QGjkDjPUS-1" target="ES7g-LYabEd6Pk6_oV13-2" edge="1">
          <mxGeometry relative="1" as="geometry" />
        </mxCell>
        <mxCell id="h8R3nK9UWV7_ieJMY7TB-3" value="" style="edgeStyle=orthogonalEdgeStyle;rounded=0;orthogonalLoop=1;jettySize=auto;html=1;" parent="1" source="B2678jRW0r7QGjkDjPUS-1" target="h8R3nK9UWV7_ieJMY7TB-2" edge="1">
          <mxGeometry relative="1" as="geometry" />
        </mxCell>
        <mxCell id="aZ9QFiKykjQF2A8jinhK-2" value="" style="edgeStyle=orthogonalEdgeStyle;rounded=0;orthogonalLoop=1;jettySize=auto;html=1;" edge="1" parent="1" source="B2678jRW0r7QGjkDjPUS-1" target="aZ9QFiKykjQF2A8jinhK-1">
          <mxGeometry relative="1" as="geometry" />
        </mxCell>
        <mxCell id="B2678jRW0r7QGjkDjPUS-1" value="/" style="text;html=1;align=center;verticalAlign=middle;whiteSpace=wrap;rounded=0;fontSize=18;fillColor=#0050ef;fontColor=#ffffff;strokeColor=#001DBC;" parent="1" vertex="1">
          <mxGeometry x="445" y="340" width="70" height="50" as="geometry" />
        </mxCell>
        <mxCell id="B2678jRW0r7QGjkDjPUS-2" value="/Login" style="text;html=1;align=center;verticalAlign=middle;whiteSpace=wrap;rounded=0;fontSize=18;fillColor=none;fontColor=#ffffff;strokeColor=none;" parent="1" vertex="1">
          <mxGeometry x="400" y="210" width="70" height="50" as="geometry" />
        </mxCell>
        <mxCell id="B2678jRW0r7QGjkDjPUS-4" value="/Signup" style="text;html=1;align=center;verticalAlign=middle;whiteSpace=wrap;rounded=0;fontSize=18;fillColor=none;fontColor=#ffffff;strokeColor=none;" parent="1" vertex="1">
          <mxGeometry x="490" y="210" width="70" height="50" as="geometry" />
        </mxCell>
        <mxCell id="ES7g-LYabEd6Pk6_oV13-5" style="edgeStyle=orthogonalEdgeStyle;rounded=0;orthogonalLoop=1;jettySize=auto;html=1;exitX=1;exitY=0.5;exitDx=0;exitDy=0;fontFamily=Helvetica;fontSize=18;fontColor=#ffffff;" parent="1" source="ES7g-LYabEd6Pk6_oV13-2" target="ES7g-LYabEd6Pk6_oV13-4" edge="1">
          <mxGeometry relative="1" as="geometry" />
        </mxCell>
        <mxCell id="Xk7OpBNhrTC6VDVZz9Ew-3" value="" style="edgeStyle=orthogonalEdgeStyle;rounded=0;orthogonalLoop=1;jettySize=auto;html=1;" parent="1" source="ES7g-LYabEd6Pk6_oV13-2" target="ES7g-LYabEd6Pk6_oV13-4" edge="1">
          <mxGeometry relative="1" as="geometry" />
        </mxCell>
        <mxCell id="Xk7OpBNhrTC6VDVZz9Ew-5" style="edgeStyle=orthogonalEdgeStyle;rounded=0;orthogonalLoop=1;jettySize=auto;html=1;exitX=1;exitY=0.5;exitDx=0;exitDy=0;" parent="1" source="ES7g-LYabEd6Pk6_oV13-2" target="Xk7OpBNhrTC6VDVZz9Ew-4" edge="1">
          <mxGeometry relative="1" as="geometry" />
        </mxCell>
        <mxCell id="Ku9IDnMvCc9zqHCo2k6q-3" style="edgeStyle=orthogonalEdgeStyle;rounded=0;orthogonalLoop=1;jettySize=auto;html=1;exitX=1;exitY=0.5;exitDx=0;exitDy=0;entryX=0;entryY=0.5;entryDx=0;entryDy=0;" parent="1" source="ES7g-LYabEd6Pk6_oV13-2" target="Ku9IDnMvCc9zqHCo2k6q-2" edge="1">
          <mxGeometry relative="1" as="geometry" />
        </mxCell>
        <mxCell id="ES7g-LYabEd6Pk6_oV13-2" value="/User/me" style="text;html=1;align=center;verticalAlign=middle;whiteSpace=wrap;rounded=0;fontSize=18;fillColor=none;fontColor=#ffffff;strokeColor=none;" parent="1" vertex="1">
          <mxGeometry x="595" y="340" width="105" height="50" as="geometry" />
        </mxCell>
        <mxCell id="ES7g-LYabEd6Pk6_oV13-4" value="/photo" style="text;html=1;align=center;verticalAlign=middle;whiteSpace=wrap;rounded=0;fontSize=18;fillColor=none;fontColor=#ffffff;strokeColor=none;" parent="1" vertex="1">
          <mxGeometry x="760" y="290" width="105" height="50" as="geometry" />
        </mxCell>
        <mxCell id="ES7g-LYabEd6Pk6_oV13-6" value="&lt;font style=&quot;font-size: 12px;&quot;&gt;&#39;BOTH Get and Post&#39;&lt;/font&gt;" style="text;html=1;align=center;verticalAlign=middle;resizable=0;points=[];autosize=1;strokeColor=none;fillColor=none;fontFamily=Helvetica;fontSize=18;fontColor=#ffffff;" parent="1" vertex="1">
          <mxGeometry x="747.5" y="270" width="130" height="40" as="geometry" />
        </mxCell>
        <mxCell id="h8R3nK9UWV7_ieJMY7TB-5" value="" style="edgeStyle=orthogonalEdgeStyle;rounded=0;orthogonalLoop=1;jettySize=auto;html=1;" parent="1" source="h8R3nK9UWV7_ieJMY7TB-2" target="h8R3nK9UWV7_ieJMY7TB-4" edge="1">
          <mxGeometry relative="1" as="geometry" />
        </mxCell>
        <mxCell id="h8R3nK9UWV7_ieJMY7TB-7" value="" style="edgeStyle=orthogonalEdgeStyle;rounded=0;orthogonalLoop=1;jettySize=auto;html=1;" parent="1" source="h8R3nK9UWV7_ieJMY7TB-2" target="h8R3nK9UWV7_ieJMY7TB-6" edge="1">
          <mxGeometry relative="1" as="geometry" />
        </mxCell>
        <mxCell id="h8R3nK9UWV7_ieJMY7TB-9" value="" style="edgeStyle=orthogonalEdgeStyle;rounded=0;orthogonalLoop=1;jettySize=auto;html=1;" parent="1" source="h8R3nK9UWV7_ieJMY7TB-2" target="h8R3nK9UWV7_ieJMY7TB-8" edge="1">
          <mxGeometry relative="1" as="geometry" />
        </mxCell>
        <mxCell id="h8R3nK9UWV7_ieJMY7TB-2" value="/friends" style="text;html=1;align=center;verticalAlign=middle;whiteSpace=wrap;rounded=0;fontSize=18;fillColor=none;fontColor=#ffffff;strokeColor=none;" parent="1" vertex="1">
          <mxGeometry x="445" y="470" width="70" height="50" as="geometry" />
        </mxCell>
        <mxCell id="h8R3nK9UWV7_ieJMY7TB-4" value="/add" style="text;html=1;align=center;verticalAlign=middle;whiteSpace=wrap;rounded=0;fontSize=18;fillColor=none;fontColor=#ffffff;strokeColor=none;" parent="1" vertex="1">
          <mxGeometry x="445" y="600" width="70" height="50" as="geometry" />
        </mxCell>
        <mxCell id="h8R3nK9UWV7_ieJMY7TB-6" value="/accept" style="text;html=1;align=center;verticalAlign=middle;whiteSpace=wrap;rounded=0;fontSize=18;fillColor=none;fontColor=#ffffff;strokeColor=none;" parent="1" vertex="1">
          <mxGeometry x="595" y="470" width="70" height="50" as="geometry" />
        </mxCell>
        <mxCell id="h8R3nK9UWV7_ieJMY7TB-8" value="/deny" style="text;html=1;align=center;verticalAlign=middle;whiteSpace=wrap;rounded=0;fontSize=18;fillColor=none;fontColor=#ffffff;strokeColor=none;" parent="1" vertex="1">
          <mxGeometry x="295" y="470" width="70" height="50" as="geometry" />
        </mxCell>
        <mxCell id="Xk7OpBNhrTC6VDVZz9Ew-4" value="/nickname" style="text;html=1;align=center;verticalAlign=middle;whiteSpace=wrap;rounded=0;fontSize=18;fillColor=none;fontColor=#ffffff;strokeColor=none;" parent="1" vertex="1">
          <mxGeometry x="760" y="389" width="105" height="50" as="geometry" />
        </mxCell>
        <mxCell id="Xk7OpBNhrTC6VDVZz9Ew-6" value="&lt;font style=&quot;font-size: 12px;&quot;&gt;&#39;change post&#39;&lt;/font&gt;" style="text;html=1;align=center;verticalAlign=middle;resizable=0;points=[];autosize=1;strokeColor=none;fillColor=none;fontFamily=Helvetica;fontSize=18;fontColor=#ffffff;" parent="1" vertex="1">
          <mxGeometry x="767.5" y="414" width="90" height="40" as="geometry" />
        </mxCell>
        <mxCell id="Ku9IDnMvCc9zqHCo2k6q-2" value="/nofitications" style="text;html=1;align=center;verticalAlign=middle;whiteSpace=wrap;rounded=0;fontSize=18;fillColor=none;fontColor=#ffffff;strokeColor=none;" parent="1" vertex="1">
          <mxGeometry x="950" y="340" width="105" height="50" as="geometry" />
        </mxCell>
        <mxCell id="aZ9QFiKykjQF2A8jinhK-1" value="/verify" style="text;html=1;align=center;verticalAlign=middle;whiteSpace=wrap;rounded=0;fontSize=18;fillColor=none;fontColor=#ffffff;strokeColor=none;" vertex="1" parent="1">
          <mxGeometry x="295" y="340" width="70" height="50" as="geometry" />
        </mxCell>
      </root>
    </mxGraphModel>
  </diagram>
</mxfile>
